<svg xmlns="http://www.w3.org/2000/svg" viewBox="0 0 860 420" width="860" height="420" font-family="system-ui,-apple-system,Segoe UI,Roboto,sans-serif" role="img" aria-label="API: latencia p95 por ventana de 30 s"><rect width="100%" height="100%" fill="#fcfcfb" rx="8"/><text x="70" y="28" font-size="16" font-weight="600" fill="#0b0b0b">API: latencia p95 por ventana de 30 s</text><line x1="70.0" x2="710.0" y1="364.0" y2="364.0" stroke="#e4e3df" stroke-width="1"/><text x="62.0" y="368.0" font-size="11" fill="#52514e" text-anchor="end">0</text><line x1="70.0" x2="710.0" y1="301.4" y2="301.4" stroke="#e4e3df" stroke-width="1"/><text x="62.0" y="305.4" font-size="11" fill="#52514e" text-anchor="end">200</text><line x1="70.0" x2="710.0" y1="238.8" y2="238.8" stroke="#e4e3df" stroke-width="1"/><text x="62.0" y="242.8" font-size="11" fill="#52514e" text-anchor="end">400</text><line x1="70.0" x2="710.0" y1="176.2" y2="176.2" stroke="#e4e3df" stroke-width="1"/><text x="62.0" y="180.2" font-size="11" fill="#52514e" text-anchor="end">600</text><line x1="70.0" x2="710.0" y1="113.6" y2="113.6" stroke="#e4e3df" stroke-width="1"/><text x="62.0" y="117.6" font-size="11" fill="#52514e" text-anchor="end">800</text><text x="70.0" y="382.0" font-size="11" fill="#52514e" text-anchor="middle">0.25</text><text x="150.0" y="382.0" font-size="11" fill="#52514e" text-anchor="middle">0.50</text><text x="230.0" y="382.0" font-size="11" fill="#52514e" text-anchor="middle">0.75</text><text x="310.0" y="382.0" font-size="11" fill="#52514e" text-anchor="middle">1</text><text x="390.0" y="382.0" font-size="11" fill="#52514e" text-anchor="middle">1.25</text><text x="470.0" y="382.0" font-size="11" fill="#52514e" text-anchor="middle">1.50</text><text x="550.0" y="382.0" font-size="11" fill="#52514e" text-anchor="middle">1.75</text><text x="630.0" y="382.0" font-size="11" fill="#52514e" text-anchor="middle">2</text><text x="710.0" y="382.0" font-size="11" fill="#52514e" text-anchor="middle">2.25</text><line x1="70.0" x2="710.0" y1="364.0" y2="364.0" stroke="#b9b8b2"/><text x="390.0" y="406.0" font-size="12" fill="#52514e" text-anchor="middle">minutos desde el inicio</text><text transform="translate(18 217.0) rotate(-90)" font-size="12" fill="#52514e" text-anchor="middle">milisegundos</text><path d="M70.0 334.3 L390.0 305.1 L710.0 288.7" fill="none" stroke="#2a78d6" stroke-width="2" stroke-linejoin="round" stroke-linecap="round"><title>autorizar y firmar</title></path><circle cx="70.0" cy="334.3" r="4" fill="#2a78d6" stroke="#fcfcfb" stroke-width="2"><title>autorizar y firmar: x=0.25, y=95.0</title></circle><circle cx="390.0" cy="305.1" r="4" fill="#2a78d6" stroke="#fcfcfb" stroke-width="2"><title>autorizar y firmar: x=1.25, y=188</title></circle><circle cx="710.0" cy="288.7" r="4" fill="#2a78d6" stroke="#fcfcfb" stroke-width="2"><title>autorizar y firmar: x=2.25, y=240</title></circle><path d="M70.0 340.5 L390.0 332.9 L710.0 339.2" fill="none" stroke="#eb6834" stroke-width="2" stroke-linejoin="round" stroke-linecap="round"><title>confirmar</title></path><circle cx="70.0" cy="340.5" r="4" fill="#eb6834" stroke="#fcfcfb" stroke-width="2"><title>confirmar: x=0.25, y=75.1</title></circle><circle cx="390.0" cy="332.9" r="4" fill="#eb6834" stroke="#fcfcfb" stroke-width="2"><title>confirmar: x=1.25, y=99.3</title></circle><circle cx="710.0" cy="339.2" r="4" fill="#eb6834" stroke="#fcfcfb" stroke-width="2"><title>confirmar: x=2.25, y=79.1</title></circle><path d="M70.0 209.6 L230.0 113.2 L390.0 207.7 L550.0 294.3 L710.0 350.3" fill="none" stroke="#1baf7a" stroke-width="2" stroke-linejoin="round" stroke-linecap="round"><title>consultar estado</title></path><circle cx="70.0" cy="209.6" r="4" fill="#1baf7a" stroke="#fcfcfb" stroke-width="2"><title>consultar estado: x=0.25, y=493</title></circle><circle cx="230.0" cy="113.2" r="4" fill="#1baf7a" stroke="#fcfcfb" stroke-width="2"><title>consultar estado: x=0.75, y=801</title></circle><circle cx="390.0" cy="207.7" r="4" fill="#1baf7a" stroke="#fcfcfb" stroke-width="2"><title>consultar estado: x=1.25, y=499</title></circle><circle cx="550.0" cy="294.3" r="4" fill="#1baf7a" stroke="#fcfcfb" stroke-width="2"><title>consultar estado: x=1.75, y=223</title></circle><circle cx="710.0" cy="350.3" r="4" fill="#1baf7a" stroke="#fcfcfb" stroke-width="2"><title>consultar estado: x=2.25, y=43.8</title></circle><path d="M70.0 242.6 L390.0 91.8" fill="none" stroke="#eda100" stroke-width="2" stroke-linejoin="round" stroke-linecap="round"><title>playlist maestro</title></path><circle cx="70.0" cy="242.6" r="4" fill="#eda100" stroke="#fcfcfb" stroke-width="2"><title>playlist maestro: x=0.25, y=388</title></circle><circle cx="390.0" cy="91.8" r="4" fill="#eda100" stroke="#fcfcfb" stroke-width="2"><title>playlist maestro: x=1.25, y=870</title></circle><circle cx="718.0" cy="91.8" r="3" fill="#eda100"/><text x="725.0" y="95.8" font-size="11" fill="#0b0b0b">playlist maestro</text><circle cx="718.0" cy="288.7" r="3" fill="#2a78d6"/><text x="725.0" y="292.7" font-size="11" fill="#0b0b0b">autorizar y firmar</text><circle cx="718.0" cy="339.2" r="3" fill="#eb6834"/><text x="725.0" y="343.2" font-size="11" fill="#0b0b0b">confirmar</text><circle cx="718.0" cy="352.2" r="3" fill="#1baf7a"/><text x="725.0" y="356.2" font-size="11" fill="#0b0b0b">consultar estado</text><line x1="70.0" x2="84.0" y1="48" y2="48" stroke="#2a78d6" stroke-width="3" stroke-linecap="round"/><text x="90.0" y="52" font-size="12" fill="#0b0b0b">autorizar y firmar</text><line x1="220.8" x2="234.8" y1="48" y2="48" stroke="#eb6834" stroke-width="3" stroke-linecap="round"/><text x="240.8" y="52" font-size="12" fill="#0b0b0b">confirmar</text><line x1="312.2" x2="326.2" y1="48" y2="48" stroke="#1baf7a" stroke-width="3" stroke-linecap="round"/><text x="332.2" y="52" font-size="12" fill="#0b0b0b">consultar estado</text><line x1="449.8" x2="463.8" y1="48" y2="48" stroke="#eda100" stroke-width="3" stroke-linecap="round"/><text x="469.8" y="52" font-size="12" fill="#0b0b0b">playlist maestro</text></svg>