<svg xmlns="http://www.w3.org/2000/svg" viewBox="0 0 860 420" width="860" height="420" font-family="system-ui,-apple-system,Segoe UI,Roboto,sans-serif" role="img" aria-label="Transcodificaciones completadas por minuto"><rect width="100%" height="100%" fill="#fcfcfb" rx="8"/><text x="70" y="28" font-size="16" font-weight="600" fill="#0b0b0b">Transcodificaciones completadas por minuto</text><line x1="70.0" x2="710.0" y1="364.0" y2="364.0" stroke="#e4e3df" stroke-width="1"/><text x="62.0" y="368.0" font-size="11" fill="#52514e" text-anchor="end">0</text><line x1="70.0" x2="710.0" y1="295.9" y2="295.9" stroke="#e4e3df" stroke-width="1"/><text x="62.0" y="299.9" font-size="11" fill="#52514e" text-anchor="end">0.50</text><line x1="70.0" x2="710.0" y1="227.9" y2="227.9" stroke="#e4e3df" stroke-width="1"/><text x="62.0" y="231.9" font-size="11" fill="#52514e" text-anchor="end">1</text><line x1="70.0" x2="710.0" y1="159.8" y2="159.8" stroke="#e4e3df" stroke-width="1"/><text x="62.0" y="163.8" font-size="11" fill="#52514e" text-anchor="end">1.50</text><line x1="70.0" x2="710.0" y1="91.8" y2="91.8" stroke="#e4e3df" stroke-width="1"/><text x="62.0" y="95.8" font-size="11" fill="#52514e" text-anchor="end">2</text><text x="138.6" y="382.0" font-size="11" fill="#52514e" text-anchor="middle">2</text><text x="230.0" y="382.0" font-size="11" fill="#52514e" text-anchor="middle">4</text><text x="321.4" y="382.0" font-size="11" fill="#52514e" text-anchor="middle">6</text><text x="412.9" y="382.0" font-size="11" fill="#52514e" text-anchor="middle">8</text><text x="504.3" y="382.0" font-size="11" fill="#52514e" text-anchor="middle">10</text><text x="595.7" y="382.0" font-size="11" fill="#52514e" text-anchor="middle">12</text><text x="687.1" y="382.0" font-size="11" fill="#52514e" text-anchor="middle">14</text><line x1="70.0" x2="710.0" y1="364.0" y2="364.0" stroke="#b9b8b2"/><text x="390.0" y="406.0" font-size="12" fill="#52514e" text-anchor="middle">minutos desde el inicio</text><text transform="translate(18 217.0) rotate(-90)" font-size="12" fill="#52514e" text-anchor="middle">trabajos por minuto</text><path d="M70.0 364.0 L115.7 227.9 L161.4 364.0 L207.1 364.0 L252.9 91.8 L298.6 364.0 L344.3 364.0 L390.0 227.9 L435.7 364.0 L481.4 364.0 L527.1 364.0 L572.9 364.0 L618.6 364.0 L664.3 227.9 L710.0 227.9" fill="none" stroke="#2a78d6" stroke-width="2" stroke-linejoin="round" stroke-linecap="round"><title>completadas</title></path><circle cx="718.0" cy="227.9" r="3" fill="#2a78d6"/><text x="725.0" y="231.9" font-size="11" fill="#0b0b0b">completadas</text></svg>